<?xml version="1.0" standalone="no"?>
<!DOCTYPE svg PUBLIC "-//W3C//DTD SVG 20010904//EN" "http://www.w3.org/TR/2001/REC-SVG-20010904/DTD/svg10.dtd">
<svg version="1.0" xmlns="http://www.w3.org/2000/svg" width="258.000000pt" height="199.000000pt"
    viewBox="0 0 258.000000 199.000000" preserveAspectRatio="xMidYMid meet">

    <g transform="translate(0.000000,199.000000) scale(0.100000,-0.100000)" fill="#000" stroke="">
        <path d="M1250 1733 c-2 -49 -4 -98 -4 -110 -1 -13 -4 -23 -8 -23 -7 0 -19
-31 -16 -40 1 -3 -9 -16 -22 -31 -14 -14 -36 -38 -49 -55 -14 -16 -61 -69
-106 -119 -135 -151 -184 -236 -206 -358 -16 -86 -2 -165 43 -247 32 -59 77
-112 88 -105 4 3 13 -2 20 -10 7 -8 18 -15 26 -15 7 0 16 -4 19 -10 7 -11 -20
-3 -45 13 -8 5 0 -4 18 -21 22 -19 40 -28 53 -25 11 3 19 0 19 -6 0 -7 -6 -9
-12 -6 -7 4 1 -5 17 -19 17 -14 36 -24 43 -21 7 3 11 1 8 -4 -3 -4 4 -17 16
-27 11 -11 38 -41 59 -67 22 -27 39 -45 39 -40 0 5 -5 14 -12 21 -9 9 -9 12 1
12 7 0 9 5 6 10 -4 6 -11 7 -17 4 -6 -4 -8 -2 -5 3 7 11 -26 47 -35 38 -3 -3
-11 3 -19 12 -13 16 -12 17 4 4 9 -7 17 -10 17 -6 0 4 7 2 15 -5 12 -10 15
-10 16 1 0 8 5 2 11 -13 5 -16 14 -28 19 -28 6 0 7 5 3 12 -4 7 -3 8 4 4 9 -5
9 -13 2 -26 -12 -22 -13 -33 -2 -27 4 3 7 -5 7 -18 0 -13 -2 -22 -5 -20 -3 2
3 -25 15 -60 11 -34 22 -61 25 -60 3 2 4 -20 3 -48 -1 -29 -2 -70 -3 -92 l-1
-40 -23 28 c-13 16 -38 56 -56 90 -141 265 -290 382 -511 403 -72 7 -186 -9
-215 -31 -16 -11 -10 -22 61 -111 152 -192 220 -238 456 -305 145 -41 208 -67
276 -113 l37 -26 41 39 c74 72 158 111 366 170 132 37 205 80 290 168 103 106
173 231 204 366 17 71 12 74 -81 59 -110 -18 -190 -66 -360 -217 -50 -44 -130
-113 -178 -154 -93 -78 -168 -162 -213 -239 l-28 -47 -2 50 c-2 48 -17 206
-29 308 -3 26 -10 45 -14 42 -4 -3 -6 4 -3 14 6 24 -33 114 -47 106 -5 -3 -10
-8 -10 -11 0 -3 5 -2 12 2 7 4 8 3 4 -4 -4 -6 -14 -8 -23 -5 -10 4 -12 8 -6
10 7 3 9 11 6 20 -5 12 -3 14 7 8 7 -4 -1 13 -19 38 -34 50 -40 54 -58 36 -8
-8 -13 -7 -18 2 -5 7 -4 10 2 6 19 -12 36 19 24 42 -6 11 -11 29 -11 41 0 12
-4 19 -9 16 -5 -3 -8 14 -7 38 0 24 4 42 8 40 6 -4 20 45 17 62 -3 20 2 35 10
30 5 -3 19 10 30 30 18 30 19 39 9 53 -11 14 -11 14 4 3 15 -12 19 -8 40 27
13 23 26 41 29 41 3 0 9 -41 12 -91 5 -70 12 -104 32 -146 15 -30 32 -52 39
-50 6 3 20 -7 30 -20 l19 -25 -29 18 -29 18 20 -24 c11 -14 24 -28 28 -31 5
-3 9 -10 9 -15 0 -5 5 -8 10 -6 6 2 8 -4 5 -11 -3 -8 0 -31 7 -51 12 -36 13
-36 23 -13 8 17 7 28 -3 42 -18 25 -18 31 4 31 20 0 21 -36 3 -96 -6 -19 -11
-51 -11 -70 0 -19 -10 -63 -22 -97 -12 -34 -20 -65 -16 -68 6 -6 47 10 136 53
46 22 193 145 152 127 -8 -4 -2 4 14 17 23 19 27 29 22 49 -5 17 -4 20 2 10
12 -17 23 1 46 78 25 83 21 195 -10 291 -23 74 -27 80 -39 63 -8 -10 -17 -14
-22 -9 -4 5 -2 11 4 13 8 3 11 15 8 31 -4 22 -4 23 4 7 6 -13 8 3 5 49 -2 38
-5 70 -7 72 -1 2 -17 -10 -34 -27 -22 -19 -30 -35 -26 -46 4 -10 2 -14 -4 -10
-5 4 -15 -5 -22 -19 -14 -31 -14 -44 -1 -44 5 0 7 6 4 14 -3 8 0 17 7 22 8 5
10 3 5 -5 -5 -7 0 -18 10 -27 18 -14 18 -14 0 -7 -13 4 -17 3 -13 -4 5 -7 0
-9 -12 -6 -14 4 -19 -2 -24 -29 -4 -18 -9 -44 -12 -58 l-6 -25 15 25 c9 14 15
19 15 10 -1 -25 -13 -45 -29 -45 -8 0 -15 -7 -14 -16 2 -25 -56 -17 -79 12
-17 21 -19 34 -14 101 5 58 3 79 -7 85 -33 20 -47 60 -42 122 2 34 0 61 -5 61
-5 0 -9 12 -8 28 l1 27 13 -30 c8 -16 14 -47 15 -67 0 -27 4 -38 15 -38 8 0
15 -4 15 -10 0 -5 -7 -10 -15 -10 -22 0 -18 -26 9 -55 l23 -25 7 50 c9 67 -2
150 -21 150 -7 0 -18 12 -23 26 -13 33 -13 44 1 44 6 0 8 -7 5 -16 -3 -8 -2
-12 4 -9 6 3 10 -4 11 -17 0 -13 3 -17 6 -11 6 16 -16 85 -26 79 -4 -3 -13 5
-21 17 -12 20 -12 21 3 8 10 -7 17 -10 17 -5 -1 14 -26 44 -32 38 -4 -3 -5 3
-4 13 0 11 -6 17 -19 17 -11 0 -19 -5 -18 -12 2 -6 -4 -9 -12 -6 -19 8 -19 14
1 43 16 22 15 24 -37 77 -30 30 -60 52 -67 49 -7 -2 -10 -1 -7 4 7 13 -12 24
-26 15 -8 -4 -7 -9 2 -15 10 -6 10 -9 2 -9 -16 0 -26 17 -13 25 6 4 8 11 5 16
-15 24 -23 2 -25 -78z m43 12 c4 -8 3 -16 -1 -19 -4 -3 -9 4 -9 15 -2 23 3 25
10 4z m54 3 c11 -19 13 -39 2 -32 -5 3 -7 10 -4 15 4 5 -4 13 -17 18 -16 7
-18 10 -6 10 9 1 20 -5 25 -11z m62 -72 c0 -6 -3 -6 -6 2 -2 6 -10 9 -15 6 -7
-5 -8 -2 -3 6 5 8 3 11 -5 8 -23 -7 -23 -29 -1 -35 24 -6 26 -13 8 -36 -11
-15 -14 -12 -28 28 -9 24 -12 42 -8 39 5 -3 12 2 15 11 6 14 8 14 25 -1 11 -9
19 -22 18 -28z m-137 -22 c-6 -12 -9 -7 -9 16 0 23 3 28 9 16 5 -9 5 -23 0
-32z m63 -13 c-9 -8 -25 21 -25 44 0 16 3 14 15 -9 9 -16 13 -32 10 -35z m-12
-48 c-7 -2 -21 -2 -30 0 -10 3 -4 5 12 5 17 0 24 -2 18 -5z m-64 -31 c0 -11
-2 -12 -6 -4 -2 6 -9 10 -14 7 -5 -4 -6 1 -3 9 8 20 24 11 23 -12z m171 13 c0
-7 8 -19 18 -24 13 -8 14 -10 2 -10 -19 0 -50 23 -50 38 0 6 7 11 15 11 8 0
15 -7 15 -15z m-90 -25 c0 -5 -15 -10 -32 -10 -25 0 -29 3 -18 10 20 13 50 13
50 0z m130 -45 c7 -9 10 -18 6 -22 -3 -3 -6 -1 -6 5 0 7 -15 12 -35 12 -19 0
-35 5 -35 10 0 16 56 12 70 -5z m-312 -54 c-12 -22 -26 -37 -30 -35 -5 3 -1
12 7 20 8 9 20 24 25 35 6 10 13 19 16 19 2 0 -6 -18 -18 -39z m56 33 c9 -3
16 -12 16 -20 0 -8 5 -14 10 -14 6 0 10 -6 10 -14 0 -8 6 -16 13 -19 6 -2 8
-8 4 -13 -4 -5 -12 -2 -18 6 -8 13 -10 13 -19 0 -8 -11 -9 -8 -4 13 3 15 2 27
-3 27 -4 0 -14 9 -21 20 -13 22 -12 23 12 14z m-14 -54 c0 -5 -5 -10 -11 -10
-5 0 -7 5 -4 10 3 6 8 10 11 10 2 0 4 -4 4 -10z m328 -40 c1 -16 -2 -30 -8
-30 -5 0 -10 14 -10 30 0 17 4 30 8 30 4 0 9 -13 10 -30z m-388 1 c0 -5 -9
-11 -21 -14 -16 -4 -18 -3 -8 9 13 16 29 19 29 5z m0 -41 c0 -5 -2 -10 -4 -10
-3 0 -8 5 -11 10 -3 6 -1 10 4 10 6 0 11 -4 11 -10z m40 0 c0 -5 -4 -10 -10
-10 -5 0 -10 5 -10 10 0 6 5 10 10 10 6 0 10 -4 10 -10z m140 0 c0 -5 -4 -10
-10 -10 -5 0 -10 5 -10 10 0 6 5 10 10 10 6 0 10 -4 10 -10z m-157 -62 c-2 -5
-15 -8 -29 -8 -27 0 -61 26 -49 38 4 4 10 1 12 -5 7 -19 43 -16 50 4 6 15 7
14 13 -3 4 -10 6 -22 3 -26z m-138 22 c-3 -5 -2 -10 4 -10 5 0 9 -18 9 -40 0
-37 -2 -40 -29 -40 -15 0 -31 5 -34 10 -4 6 7 10 27 10 25 0 29 3 18 10 -10 6
-11 10 -2 10 15 0 16 26 0 36 -8 5 -9 2 -5 -10 4 -10 3 -15 -3 -11 -6 3 -10
-2 -11 -12 0 -11 -3 -13 -6 -5 -5 12 22 62 33 62 3 0 2 -4 -1 -10z m195 0 c0
-5 -4 -10 -10 -10 -5 0 -10 5 -10 10 0 6 5 10 10 10 6 0 10 -4 10 -10z m532 2
c-7 -5 -10 -17 -6 -28 5 -15 4 -16 -5 -4 -8 12 -13 12 -23 2 -7 -7 -8 -12 -1
-12 14 0 11 -42 -5 -48 -18 -6 -9 54 13 78 10 11 23 20 29 20 6 0 6 -4 -2 -8z
m-442 -84 c0 -4 -4 -8 -9 -8 -6 0 -12 4 -15 8 -3 5 1 9 9 9 8 0 15 -4 15 -9z
m36 -15 c-4 -4 -12 -1 -19 7 -9 10 -9 11 1 6 7 -4 12 -2 13 6 0 11 2 11 6 0 3
-7 2 -16 -1 -19z m31 5 c-3 -8 -6 -5 -6 6 -1 11 2 17 5 13 3 -3 4 -12 1 -19z
m-406 -5 c13 -16 12 -17 -3 -4 -10 7 -18 15 -18 17 0 8 8 3 21 -13z m546 -5
c-3 -8 -6 -5 -6 6 -1 11 2 17 5 13 3 -3 4 -12 1 -19z m-227 2 c0 -5 -16 -10
-35 -10 -19 0 -35 5 -35 10 0 6 16 10 35 10 19 0 35 -4 35 -10z m-314 -27 c-6
-6 -36 9 -36 18 0 5 9 4 20 -3 10 -7 18 -14 16 -15z m421 5 c-3 -8 -6 -5 -6 6
-1 11 2 17 5 13 3 -3 4 -12 1 -19z m83 2 c0 -5 -4 -10 -10 -10 -5 0 -10 5 -10
10 0 6 5 10 10 10 6 0 10 -4 10 -10z m-545 -10 c3 -5 1 -10 -4 -10 -6 0 -11 5
-11 10 0 6 2 10 4 10 3 0 8 -4 11 -10z m445 -31 c0 -40 -17 -36 -22 5 -3 24 0
32 9 29 7 -3 13 -18 13 -34z m-153 9 c-3 -8 -6 -5 -6 6 -1 11 2 17 5 13 3 -3
4 -12 1 -19z m26 0 c-4 -19 -3 -20 6 -8 7 9 11 10 11 3 0 -17 -17 -25 -25 -13
-4 6 -4 17 -1 25 8 23 15 18 9 -7z m254 -20 c1 -23 -1 -47 -5 -54 -4 -7 -8 12
-9 42 -2 30 1 54 5 54 4 0 8 -19 9 -42z m-527 12 c0 -5 -4 -10 -10 -10 -5 0
-10 5 -10 10 0 6 5 10 10 10 6 0 10 -4 10 -10z m708 -5 c6 11 12 15 12 8 0 -7
9 -10 21 -8 17 4 19 2 9 -10 -10 -12 -9 -15 4 -15 9 0 16 -4 16 -10 0 -14 -27
-12 -37 3 -5 8 -10 2 -14 -18 l-7 -30 -1 28 c0 16 -5 26 -10 23 -9 -6 -22 17
-20 37 0 7 4 3 8 -8 8 -19 8 -19 19 0z m-221 -17 c-3 -8 -6 -5 -6 6 -1 11 2
17 5 13 3 -3 4 -12 1 -19z m-562 2 c3 -5 1 -10 -4 -10 -6 0 -11 5 -11 10 0 6
2 10 4 10 3 0 8 -4 11 -10z m135 -20 c0 -13 -11 -13 -30 0 -12 8 -11 10 8 10
12 0 22 -4 22 -10z m40 0 c0 -5 -4 -10 -10 -10 -5 0 -10 5 -10 10 0 6 5 10 10
10 6 0 10 -4 10 -10z m715 -18 c-3 -8 0 -19 6 -23 9 -5 8 -15 -2 -38 -16 -36
-39 -41 -38 -8 0 21 1 21 9 2 8 -19 9 -19 9 3 1 16 -6 26 -19 29 -11 3 -20 9
-20 14 0 15 12 10 37 -13 20 -19 35 -13 16 6 -11 11 -11 56 0 49 4 -3 6 -12 2
-21z m-905 -7 c0 -8 -4 -15 -10 -15 -5 0 -7 7 -4 15 4 8 8 15 10 15 2 0 4 -7
4 -15z m590 -5 c0 -11 -4 -20 -9 -20 -5 0 -7 9 -4 20 3 11 7 20 9 20 2 0 4 -9
4 -20z m200 -35 c0 -25 -4 -45 -10 -45 -11 0 -13 33 -4 68 10 34 14 27 14 -23z
m-632 24 c-2 -6 -7 -10 -11 -10 -4 1 -15 1 -24 1 -15 0 -16 2 -3 10 20 13 43
13 38 -1z m84 -9 c10 0 18 -6 18 -12 0 -26 -13 -58 -22 -58 -6 0 -7 7 -4 16 3
8 2 13 -3 10 -5 -3 -11 2 -14 12 -2 9 -8 26 -12 37 -7 16 -6 18 6 8 7 -7 21
-13 31 -13z m-212 -12 c0 -16 -3 -19 -11 -11 -6 6 -8 16 -5 22 11 17 16 13 16
-11z m-40 3 c0 -5 -6 -14 -14 -20 -12 -10 -13 -8 -9 8 5 21 23 30 23 12z m187
-38 c-3 -10 -5 -2 -5 17 0 19 2 27 5 18 2 -10 2 -26 0 -35z m312 -2 c0 9 7 16
14 16 6 0 20 4 30 8 20 8 21 -2 7 -41 -10 -25 -12 -26 -24 -9 -10 14 -15 15
-21 5 -11 -18 -25 8 -24 45 2 30 2 30 9 -5 4 -19 8 -28 9 -19z m318 27 c-3 -8
-6 -5 -6 6 -1 11 2 17 5 13 3 -3 4 -12 1 -19z m-610 -20 c-3 -7 -5 -2 -5 12 0
14 2 19 5 13 2 -7 2 -19 0 -25z m260 -5 c-3 -10 -5 -4 -5 12 0 17 2 24 5 18 2
-7 2 -21 0 -30z m303 7 c0 -11 -2 -20 -4 -20 -2 0 -6 9 -9 20 -3 11 -1 20 4
20 5 0 9 -9 9 -20z m-106 4 c20 -8 21 -21 1 -21 -8 0 -12 4 -9 8 2 4 -2 10 -8
12 -7 3 -10 6 -6 6 3 1 13 -2 22 -5z m-65 -31 c10 -19 9 -23 -4 -23 -10 0 -15
9 -15 27 0 29 2 29 19 -4z m-492 11 c-3 -3 -12 -4 -19 -1 -8 3 -5 6 6 6 11 1
17 -2 13 -5z m833 -14 c0 -5 -4 -10 -10 -10 -5 0 -10 5 -10 10 0 6 5 10 10 10
6 0 10 -4 10 -10z m-880 -15 c0 -8 -4 -15 -10 -15 -5 0 -10 -10 -11 -22 0 -13
-3 -17 -6 -10 -2 6 -13 12 -23 12 -10 0 -21 -6 -23 -12 -3 -7 -6 -3 -6 10 -1
18 4 22 29 22 20 0 30 5 30 15 0 8 5 15 10 15 6 0 10 -7 10 -15z m442 -10 c3
0 10 -4 15 -9 5 -5 3 -6 -4 -2 -7 4 -13 3 -13 -1 0 -5 6 -15 13 -23 10 -12 9
-12 -6 0 -23 17 -46 57 -25 44 7 -5 16 -9 20 -9z m-402 -15 c0 -5 -7 -10 -16
-10 -8 0 -12 5 -9 10 3 6 10 10 16 10 5 0 9 -4 9 -10z m480 -15 c0 -30 -1 -30
-28 -6 -28 24 -28 31 3 31 20 0 25 -5 25 -25z m320 15 c0 -5 -4 -10 -10 -10
-5 0 -10 5 -10 10 0 6 5 10 10 10 6 0 10 -4 10 -10z m-80 -15 c0 -8 -2 -15 -4
-15 -2 0 -6 7 -10 15 -3 8 -1 15 4 15 6 0 10 -7 10 -15z m-552 -25 c0 -20 -4
-30 -14 -30 -15 0 -18 18 -8 44 10 26 21 18 22 -14z m407 20 c-3 -5 -13 -10
-21 -10 -8 0 -14 5 -14 10 0 6 9 10 21 10 11 0 17 -4 14 -10z m256 -9 c12 19
11 -40 -2 -66 -9 -19 -9 -18 -5 3 2 13 0 20 -6 16 -5 -4 -7 -21 -4 -39 4 -18
2 -43 -2 -56 -7 -17 -8 -7 -7 36 3 99 7 132 12 111 4 -15 7 -16 14 -5z m-34
-23 c-3 -7 -5 -2 -5 12 0 14 2 19 5 13 2 -7 2 -19 0 -25z m-877 -8 c0 -5 -4
-10 -10 -10 -5 0 -10 5 -10 10 0 6 5 10 10 10 6 0 10 -4 10 -10z m683 -3 c4
-10 -2 -13 -19 -9 -13 2 -21 8 -18 13 8 14 31 11 37 -4z m97 3 c0 -5 -4 -10
-10 -10 -5 0 -10 5 -10 10 0 6 5 10 10 10 6 0 10 -4 10 -10z m-815 -10 c3 -5
1 -10 -4 -10 -6 0 -11 5 -11 10 0 6 2 10 4 10 3 0 8 -4 11 -10z m235 -50 c0
-5 -13 -10 -30 -10 -16 0 -30 5 -30 10 0 6 14 10 30 10 17 0 30 -4 30 -10z
m660 -25 c-13 -15 -30 -11 -30 7 0 5 7 8 15 4 10 -3 15 1 16 12 0 11 2 12 6 4
3 -7 -1 -19 -7 -27z m-880 -5 c0 -5 -2 -10 -4 -10 -3 0 -8 5 -11 10 -3 6 -1
10 4 10 6 0 11 -4 11 -10z m301 -4 c5 3 9 0 9 -6 0 -15 -23 -7 -26 8 -1 7 0 8
3 2 2 -5 9 -8 14 -4z m399 4 c0 -5 -4 -10 -10 -10 -5 0 -10 5 -10 10 0 6 5 10
10 10 6 0 10 -4 10 -10z m-689 -23 c-10 -9 -11 -8 -5 6 3 10 9 15 12 12 3 -3
0 -11 -7 -18z m655 -45 c2 -33 1 -34 -7 -12 -8 20 -12 22 -19 10 -6 -10 -9 -2
-7 26 1 36 3 39 16 27 7 -8 15 -31 17 -51z m-446 17 c0 -14 -57 -10 -63 4 -3
9 5 12 29 9 19 -2 34 -8 34 -13z m-153 -36 c-3 -10 -5 -2 -5 17 0 19 2 27 5
18 2 -10 2 -26 0 -35z m723 37 c0 -5 -4 -10 -10 -10 -5 0 -10 5 -10 10 0 6 5
10 10 10 6 0 10 -4 10 -10z m-749 -14 c5 3 9 0 9 -6 0 -15 -23 -7 -26 8 -1 7
0 8 3 2 2 -5 9 -8 14 -4z m801 -18 c3 -30 4 -31 21 -14 9 10 17 13 17 7 0 -12
-13 -21 -38 -26 -14 -2 -19 4 -20 31 -3 43 16 45 20 2z m-541 13 c17 28 16 3
-1 -29 l-18 -33 1 37 c1 20 3 31 5 24 4 -10 6 -9 13 1z m36 -13 c-3 -8 -6 -5
-6 6 -1 11 2 17 5 13 3 -3 4 -12 1 -19z m430 -10 c-3 -8 -6 -5 -6 6 -1 11 2
17 5 13 3 -3 4 -12 1 -19z m39 -5 c-10 -10 -19 5 -10 18 6 11 8 11 12 0 2 -7
1 -15 -2 -18z m-719 -5 c-3 -8 -6 -5 -6 6 -1 11 2 17 5 13 3 -3 4 -12 1 -19z
m264 -29 c-17 -30 -28 -31 -16 -2 5 10 8 21 7 24 0 3 5 6 12 6 10 0 9 -7 -3
-28z m289 -2 c0 -18 -2 -19 -10 -7 -13 20 -13 0 1 -38 8 -25 8 -36 -4 -52 -12
-18 -15 -19 -21 -5 -3 9 -2 13 3 10 17 -10 23 15 11 50 -12 36 -5 79 11 70 5
-4 9 -16 9 -28z m60 29 c0 -3 -4 -8 -10 -11 -5 -3 -10 -1 -10 4 0 6 5 11 10
11 6 0 10 -2 10 -4z m30 -11 c0 -8 5 -15 10 -15 6 0 10 -7 10 -15 0 -8 -4 -15
-10 -15 -5 0 -10 7 -10 15 0 8 -4 15 -10 15 -5 0 -10 -7 -10 -17 0 -9 -2 -14
-5 -11 -9 8 6 58 16 58 5 0 9 -7 9 -15z m-634 -17 c3 -4 -1 -5 -10 -4 -8 1
-18 5 -22 8 -3 4 1 5 10 4 8 -1 18 -5 22 -8z m710 -42 c-10 -6 -34 -26 -54
-43 -31 -29 -50 -38 -74 -34 -5 0 -8 -3 -8 -7 0 -5 -7 -9 -15 -9 -8 0 -12 4
-9 8 2 4 -1 9 -7 11 -7 2 -5 9 5 17 14 12 16 12 10 -3 -3 -9 -2 -16 4 -16 5 0
13 8 16 17 6 14 9 15 16 4 4 -8 15 -11 25 -8 9 4 13 11 10 17 -3 5 6 15 20 20
14 5 24 14 20 19 -3 5 0 13 6 17 8 4 9 3 5 -4 -11 -18 9 -14 24 3 7 9 16 13
19 9 3 -3 -2 -11 -13 -18z m-399 -36 c-1 -23 -26 -35 -41 -20 -7 7 -5 10 7 10
10 0 20 7 23 15 8 21 13 19 11 -5z m-162 -20 c-8 -13 8 -13 21 0 6 6 10 2 11
-12 2 -18 0 -20 -7 -8 -8 13 -10 13 -10 1 0 -12 -3 -12 -12 -3 -14 14 -32 16
-23 2 4 -6 -1 -7 -11 -3 -14 5 -13 8 7 19 29 16 32 17 24 4z m82 -57 c-11 -12
-16 -12 -22 -2 -6 8 -4 10 4 5 8 -5 14 0 18 15 4 14 8 18 11 10 2 -7 -2 -20
-11 -28z m254 4 c-10 -9 -11 -8 -5 6 3 10 9 15 12 12 3 -3 0 -11 -7 -18z m49
8 c0 -2 -6 -5 -13 -8 -8 -3 -14 1 -14 8 0 7 6 11 14 8 7 -3 13 -6 13 -8z
m-227 -2 c-7 -2 -19 -2 -25 0 -7 3 -2 5 12 5 14 0 19 -2 13 -5z m14 -55 c-3
-8 -6 -5 -6 6 -1 11 2 17 5 13 3 -3 4 -12 1 -19z m32 -55 c1 -7 -3 -13 -9 -13
-5 0 -10 17 -9 38 1 33 2 34 9 12 4 -14 8 -31 9 -37z m-384 -48 c28 -19 68
-53 90 -76 l40 -43 -40 31 c-22 17 -79 56 -127 87 -49 31 -88 58 -88 61 0 10
76 -26 125 -60z m784 -7 c-41 -29 -95 -69 -119 -88 -55 -44 -49 -27 11 28 46
42 154 112 173 112 6 0 -23 -24 -65 -52z m-404 -37 c-14 -29 -17 -30 -32 -16
-12 12 -13 19 -4 28 8 8 11 8 11 -1 0 -7 5 -12 11 -12 5 0 9 8 8 18 -3 29 1
36 12 25 8 -8 6 -20 -6 -42z m2 -78 c-3 -10 -5 -2 -5 17 0 19 2 27 5 18 2 -10
2 -26 0 -35z m-10 -55 c-3 -7 -5 -2 -5 12 0 14 2 19 5 13 2 -7 2 -19 0 -25z" />
        <path d="M1419 1638 c-11 -20 -10 -21 3 -11 8 7 18 10 21 6 4 -3 7 -1 7 5 0
22 -19 22 -31 0z" />
        <path d="M490 995 c-6 -14 -10 -30 -10 -35 0 -5 -12 -23 -27 -41 -16 -18 -22
-30 -15 -25 7 4 12 2 12 -4 0 -6 -8 -10 -17 -9 -23 4 -93 -20 -93 -31 0 -4 25
-22 55 -39 30 -17 59 -40 65 -50 6 -13 17 -18 28 -15 13 5 14 4 3 -4 -11 -8
-9 -14 8 -31 22 -22 25 -18 24 26 -1 7 2 11 6 9 4 -3 13 5 21 17 12 20 12 21
-3 9 -14 -12 -16 -11 -14 8 1 12 8 20 17 19 28 -2 33 1 21 15 -8 10 -9 16 -2
21 7 4 6 17 -5 38 -11 23 -11 27 -1 15 8 -10 17 -15 21 -11 4 4 4 0 0 -10 -3
-10 -1 -17 5 -17 6 0 11 5 11 11 0 8 4 9 13 0 8 -6 17 -8 20 -5 3 4 -13 16
-36 28 -29 14 -49 34 -63 63 -12 23 -25 39 -30 35 -5 -4 -3 0 4 10 9 11 10 18
2 23 -5 3 -15 -6 -20 -20z m25 -44 c3 -5 2 -12 -3 -15 -5 -3 -9 1 -9 9 0 17 3
19 12 6z m-30 -31 c-3 -5 0 -10 7 -11 7 0 4 -4 -7 -8 -26 -11 -39 -3 -24 15
13 16 33 19 24 4z m49 -11 c-3 -5 -10 -7 -15 -3 -5 3 -7 10 -3 15 3 5 10 7 15
3 5 -3 7 -10 3 -15z m-10 -48 c3 -5 -3 -11 -14 -14 -20 -5 -26 3 -13 16 9 10
21 9 27 -2z m-116 -20 c2 -6 9 -8 17 -5 17 7 30 -15 17 -28 -6 -6 -18 -1 -34
15 -13 13 -32 23 -41 21 -9 -1 -15 2 -12 6 7 11 49 3 53 -9z m108 -33 c5 -7 2
-8 -6 -3 -7 4 -15 2 -20 -5 -5 -9 -8 -8 -13 2 -6 17 29 22 39 6z m-46 -18 c0
-5 -2 -10 -4 -10 -3 0 -8 5 -11 10 -3 6 -1 10 4 10 6 0 11 -4 11 -10z" />
        <path d="M425 820 c3 -5 8 -10 11 -10 2 0 4 5 4 10 0 6 -5 10 -11 10 -5 0 -7
-4 -4 -10z" />
        <path d="M657 849 c7 -7 15 -10 18 -7 3 3 -2 9 -12 12 -14 6 -15 5 -6 -5z" />
        <path d="M575 829 c-4 -5 2 -6 11 -2 12 5 15 3 9 -6 -6 -11 -3 -11 16 -1 13 7
25 14 27 15 1 1 -11 2 -28 3 -16 0 -32 -3 -35 -9z" />
    </g>
</svg>